<?xml version="1.0" standalone="no"?>
<!DOCTYPE svg PUBLIC "-//W3C//DTD SVG 20010904//EN"
 "http://www.w3.org/TR/2001/REC-SVG-20010904/DTD/svg10.dtd">
<svg version="1.0" xmlns="http://www.w3.org/2000/svg"
 width="413.000000pt" height="418.000000pt" viewBox="0 0 413.000000 418.000000"
 preserveAspectRatio="xMidYMid meet">

<g transform="translate(0.000000,418.000000) scale(0.100000,-0.100000)"
fill="#000000" stroke="none">
<path d="M0 2090 l0 -2090 2065 0 2065 0 0 2090 0 2090 -2065 0 -2065 0 0
-2090z m2320 977 c189 -57 317 -133 455 -270 64 -64 107 -118 142 -177 78
-136 122 -250 95 -250 -4 0 -16 24 -26 53 -99 282 -354 523 -648 612 -493 149
-1020 -110 -1204 -592 -26 -69 -44 -92 -44 -57 0 28 52 147 101 229 140 236
366 398 649 466 116 28 365 21 480 -14z m-105 -108 c175 -30 329 -113 471
-254 89 -88 149 -181 196 -302 17 -43 35 -81 41 -85 7 -4 93 -7 192 -7 l180 0
3 -30 3 -31 -185 0 c-159 0 -186 -2 -186 -15 0 -8 6 -15 13 -15 6 -1 89 -2
182 -3 l170 -2 0 -30 0 -30 -177 -3 c-149 -2 -178 -5 -178 -17 0 -13 28 -15
180 -15 l180 0 0 -30 0 -30 -180 0 c-153 0 -180 -2 -180 -15 0 -13 27 -15 180
-15 l180 0 0 -30 0 -30 -185 0 c-158 0 -185 -2 -185 -15 0 -13 27 -15 185 -15
l185 0 0 -35 0 -35 -194 0 -194 0 -8 -32 c-3 -18 -21 -65 -39 -104 -123 -269
-367 -463 -645 -511 -103 -18 -305 -12 -395 12 -134 35 -306 137 -401 237 -90
94 -169 225 -208 346 l-18 52 -194 0 -194 0 0 35 0 35 185 0 c158 0 185 2 185
15 0 13 -27 15 -185 15 l-185 0 0 30 0 30 180 0 c153 0 180 2 180 15 0 13 -27
15 -180 15 l-180 0 0 30 0 30 180 0 c153 0 180 2 180 15 0 13 -27 15 -180 15
l-180 0 0 34 0 34 182 0 c156 0 182 2 190 16 8 14 -10 16 -182 16 l-190 0 0
30 c0 22 5 30 18 30 9 1 96 0 193 0 l176 -1 18 53 c100 309 378 549 690 597
121 19 198 19 310 0z m810 -1156 c-22 -89 -91 -228 -158 -318 -302 -403 -851
-522 -1297 -282 -211 113 -393 327 -470 553 -24 68 -23 64 -7 64 7 0 23 -30
36 -67 178 -499 751 -773 1246 -596 313 113 518 327 629 656 9 29 29 20 21
-10z"/>
<path d="M1895 2896 c-172 -37 -326 -124 -443 -251 -97 -106 -174 -256 -203
-400 -16 -77 -16 -233 0 -310 79 -386 417 -665 806 -667 375 -1 708 261 801
632 25 102 25 278 0 380 -63 250 -224 445 -460 556 -39 18 -98 41 -131 50 -80
21 -291 27 -370 10z m132 -72 c-3 -3 -12 -4 -19 -1 -8 3 -5 6 6 6 11 1 17 -2
13 -5z m24 -45 c13 -26 37 -24 42 4 3 17 5 15 6 -9 l1 -31 -102 -6 c-56 -4
-104 -5 -106 -2 -10 10 11 43 34 53 34 16 34 16 34 -13 0 -14 5 -25 10 -25 6
0 10 9 10 20 0 22 27 41 47 33 8 -3 18 -14 24 -24z m-221 -14 c6 -19 10 -41 8
-47 -3 -7 -12 9 -21 35 -9 26 -12 47 -7 47 5 0 14 -16 20 -35z m351 25 c10 -6
19 -17 19 -26 0 -14 25 -27 75 -40 16 -4 25 -2 25 5 0 6 -14 14 -30 18 -40 8
-49 23 -13 23 30 0 63 -29 63 -55 0 -19 -31 -19 -76 0 -19 8 -57 17 -85 21
-27 4 -49 11 -49 16 0 6 17 7 42 3 39 -7 41 -6 29 9 -7 9 -20 16 -27 16 -8 0
-14 5 -14 10 0 13 16 13 41 0z m-378 -42 c9 -23 16 -42 14 -42 -14 -5 -116
-62 -129 -73 -9 -8 -22 -12 -27 -8 -6 3 -11 2 -11 -4 0 -5 -25 -35 -56 -66
-46 -45 -59 -54 -70 -44 -12 9 -18 9 -27 0 -9 -9 -7 -13 11 -17 28 -8 28 -21
0 -51 -23 -25 -43 -29 -53 -12 -4 6 0 9 10 7 28 -5 42 26 21 47 -24 24 -3 49
36 41 37 -7 38 18 1 56 -15 15 -22 28 -16 28 6 0 16 -7 23 -15 11 -13 16 -10
41 16 23 24 34 30 54 25 30 -8 31 -2 5 31 -11 15 -18 29 -14 32 5 6 25 -16 43
-48 13 -23 32 -3 25 27 -6 26 -6 26 9 7 19 -25 36 -11 19 15 -7 11 -8 20 -3
20 5 0 11 -7 15 -15 10 -27 29 -17 22 13 l-7 27 18 -22 c12 -15 23 -20 31 -14
12 7 11 14 -2 39 -18 35 -19 42 -8 42 5 0 16 -19 25 -42z m-95 -6 c2 -7 -3
-12 -10 -12 -8 0 -15 7 -15 15 0 18 19 15 25 -3z m385 -19 c-7 -2 -19 -2 -25
0 -7 3 -2 5 12 5 14 0 19 -2 13 -5z m339 -25 c9 -7 18 -26 20 -42 3 -34 28
-49 28 -17 0 27 20 27 48 1 26 -25 27 -28 5 -52 -14 -15 -14 -18 -1 -18 8 0
27 10 42 21 15 12 30 19 33 16 2 -3 -4 -11 -15 -18 -20 -12 -19 -13 10 -41 27
-25 29 -33 23 -64 -6 -32 -4 -36 11 -30 30 12 54 -3 54 -34 0 -28 -19 -44 -43
-34 -8 3 -24 26 -37 52 -28 57 -140 169 -203 202 -46 24 -47 24 -61 5 -14 -18
-15 -18 -16 -3 0 10 17 29 37 43 43 29 44 29 65 13z m-307 -98 c4 -14 12 -19
24 -15 9 3 26 -2 37 -10 18 -14 17 -14 -16 -15 -30 -1 -32 -2 -13 -10 26 -11
38 -43 24 -67 -8 -16 -11 -15 -22 9 -26 57 -69 41 -69 -26 0 -65 10 -86 45
-100 24 -10 45 -11 81 -4 80 15 226 -8 294 -47 22 -13 -33 -14 -445 -14 -292
0 -464 3 -454 9 8 5 51 21 94 35 96 31 171 33 219 4 l35 -20 40 23 c40 22 48
39 35 72 -9 24 -34 19 -34 -6 0 -19 -2 -20 -10 -8 -5 8 -7 23 -4 34 5 13 2 17
-7 12 -8 -4 -6 -1 3 6 9 8 20 27 24 44 9 40 22 54 51 54 14 0 21 4 18 10 -3 6
-15 10 -26 10 -10 0 -19 4 -19 9 0 15 41 24 53 12 17 -17 31 -13 17 4 -10 12
-10 15 3 15 9 0 19 -9 22 -20z m-681 -122 c-5 -8 -2 -9 11 -4 15 5 16 4 5 -9
-10 -12 -15 -13 -21 -3 -7 12 -3 28 7 28 3 0 2 -5 -2 -12z m61 -224 c21 -8 45
-56 45 -89 0 -14 -7 -39 -15 -54 -13 -25 -13 -31 0 -41 24 -20 29 -74 10 -113
-17 -36 -50 -57 -90 -57 l-25 0 0 180 0 180 29 0 c16 0 37 -3 46 -6z m145 -19
c0 -16 -6 -25 -15 -25 -12 0 -15 -13 -15 -55 0 -42 3 -55 15 -55 9 0 15 -9 15
-25 0 -16 -6 -25 -15 -25 -11 0 -15 -12 -15 -50 0 -35 4 -49 13 -47 7 1 13
-10 15 -25 3 -27 1 -28 -37 -28 l-41 0 0 180 0 180 40 0 c36 0 40 -2 40 -25z
m111 8 c0 -10 8 -91 17 -180 l18 -163 -23 0 c-20 0 -23 5 -23 35 0 46 -27 49
-32 3 -2 -25 -8 -34 -25 -36 -27 -4 -27 -12 -8 173 8 77 15 150 15 163 0 18 6
22 30 22 22 0 30 -5 31 -17z m139 -8 c0 -15 -6 -25 -15 -25 -27 0 -40 -43 -39
-132 0 -70 3 -91 18 -107 10 -11 23 -18 28 -15 5 4 8 -6 6 -22 -2 -23 -8 -29
-27 -29 -35 0 -59 40 -72 120 -20 119 18 235 77 235 19 0 24 -5 24 -25z m70
-49 c0 -41 5 -78 10 -81 6 -4 10 23 10 74 0 80 0 81 25 81 l25 0 0 -180 0
-180 -25 0 c-24 0 -25 2 -25 75 0 43 -4 75 -10 75 -6 0 -10 -32 -10 -75 0 -73
-1 -75 -25 -75 l-25 0 0 180 0 180 25 0 c24 0 25 -2 25 -74z m241 64 c23 -13
49 -61 49 -90 0 -35 -29 -86 -55 -98 -23 -11 -25 -17 -25 -87 0 -71 -1 -75
-22 -75 -22 0 -23 3 -22 98 1 262 1 262 30 262 14 0 34 -5 45 -10z m129 1 c0
-22 31 -309 35 -328 5 -19 1 -23 -19 -23 -20 0 -25 6 -28 32 -3 35 -28 52 -28
20 0 -34 -11 -52 -31 -52 -23 0 -23 -2 -4 170 21 186 22 190 51 190 13 0 24
-4 24 -9z m143 -11 c34 -27 44 -79 24 -119 -13 -26 -13 -35 -1 -70 8 -23 17
-65 20 -96 7 -54 6 -55 -18 -55 -23 0 -26 5 -31 55 -9 91 -26 102 -27 18 0
-70 -1 -73 -24 -73 -17 0 -25 7 -28 24 -4 19 -3 325 1 334 5 10 63 -2 84 -18z
m118 -52 c1 -85 17 -67 18 20 1 49 3 52 26 52 23 0 25 -3 25 -47 -1 -27 -7
-66 -15 -88 -10 -27 -11 -43 -4 -52 6 -7 13 -48 16 -93 l6 -80 -27 0 c-25 0
-26 2 -27 63 -1 99 -17 116 -18 19 l-1 -83 -27 3 -27 3 0 178 -1 177 28 0 c27
0 27 0 28 -72z m-1115 -385 c2 -37 -3 -41 -22 -15 -13 16 -13 16 -14 0 0 -35
-20 -17 -20 18 0 33 2 35 27 32 23 -3 28 -8 29 -35z m112 30 c-10 -2 -18 -9
-18 -14 0 -5 8 -10 18 -10 16 -1 16 -2 0 -6 -10 -2 -18 -8 -18 -13 0 -5 8 -11
18 -13 10 -3 6 -5 -10 -6 -25 -1 -28 2 -28 34 0 32 3 35 28 34 16 -1 20 -3 10
-6z m119 0 c-17 -4 -17 -6 -2 -23 9 -10 14 -24 10 -29 -8 -14 -45 -14 -45 -1
0 5 7 7 15 4 8 -4 15 -1 15 5 0 6 -7 11 -15 11 -8 0 -15 9 -15 20 0 15 6 20
28 19 18 -1 21 -3 9 -6z m141 0 c-12 -3 -18 -14 -18 -34 0 -16 -4 -29 -10 -29
-5 0 -10 13 -10 29 0 20 -6 31 -17 34 -10 3 2 5 27 5 25 0 37 -2 28 -5z m117
-23 c8 -16 15 -30 15 -32 0 -2 -17 -3 -38 -3 l-39 0 10 32 c13 41 32 42 52 3z
m97 3 c2 -17 9 -28 18 -28 9 0 16 11 18 28 2 15 8 27 13 27 17 0 5 -52 -13
-64 -13 -8 -23 -8 -35 0 -19 12 -31 64 -14 64 5 0 11 -12 13 -27z m183 -10 c3
-36 -8 -43 -24 -15 -10 16 -10 16 -11 0 0 -10 -4 -18 -10 -18 -5 0 -10 16 -10
36 0 32 2 35 26 32 22 -2 27 -9 29 -35z m127 4 l16 -32 -39 0 c-22 0 -39 0
-39 1 0 0 5 15 11 33 14 40 31 39 51 -2z m108 18 c7 -8 16 -15 21 -15 5 0 9 7
9 15 0 8 5 15 10 15 6 0 10 -16 10 -35 0 -40 -14 -45 -41 -12 l-18 22 -1 -22
c0 -13 -4 -23 -10 -23 -5 0 -10 16 -10 35 0 37 10 44 30 20z m173 8 c-7 -2
-13 -18 -13 -34 0 -16 -4 -29 -10 -29 -5 0 -10 13 -10 29 0 20 -6 31 -17 34
-10 3 0 5 22 5 22 0 34 -2 28 -5z m-568 -303 c18 0 18 -2 2 -31 -16 -31 -57
-37 -57 -9 0 11 -4 20 -10 20 -5 0 -10 5 -10 10 0 6 7 10 15 10 9 0 18 7 22
16 5 15 7 15 15 0 5 -9 16 -16 23 -16z m-245 10 c0 -5 7 -10 16 -10 11 0 14
-5 10 -16 -3 -9 -6 -21 -6 -28 0 -7 -13 -13 -30 -13 -17 0 -30 6 -30 13 0 7
-3 19 -6 28 -4 11 -1 16 10 16 9 0 16 5 16 10 0 6 5 10 10 10 6 0 10 -4 10
-10z m126 -10 c16 0 16 -5 8 -37 -8 -28 -44 -27 -60 2 -9 16 -7 23 10 37 12 9
23 13 24 8 2 -6 10 -10 18 -10z m214 10 c0 -5 7 -10 15 -10 17 0 20 -16 4 -25
-6 -4 -8 -13 -6 -19 3 -8 -5 -13 -24 -13 -17 0 -29 6 -29 13 0 7 -3 19 -6 28
-4 11 -1 16 10 16 9 0 16 5 16 10 0 6 5 10 10 10 6 0 10 -4 10 -10z m127 -10
c10 0 13 -6 9 -16 -3 -9 -6 -21 -6 -28 0 -7 -13 -13 -30 -13 -21 0 -29 4 -26
13 3 8 1 16 -4 19 -6 4 -10 9 -10 13 0 11 44 28 48 20 2 -5 11 -8 19 -8z"/>
<path d="M2000 2776 c0 -10 9 -16 21 -16 24 0 21 23 -4 28 -10 2 -17 -3 -17
-12z"/>
<path d="M1910 2755 c-8 -9 -8 -15 -2 -15 18 0 42 12 42 21 0 14 -26 10 -40
-6z"/>
<path d="M1580 2600 c-21 -21 -26 -40 -12 -40 5 0 21 14 37 30 22 23 25 30 12
30 -9 0 -26 -9 -37 -20z"/>
<path d="M2386 2681 c-3 -4 6 -13 19 -19 22 -10 25 -9 25 8 0 20 -33 29 -44
11z"/>
<path d="M2497 2625 c-4 -9 -1 -18 9 -22 22 -8 30 5 12 23 -14 14 -16 14 -21
-1z"/>
<path d="M2572 2521 c24 -31 38 -38 38 -20 0 23 -22 49 -41 49 -20 0 -20 -1 3
-29z"/>
<path d="M2637 2434 c-9 -10 12 -34 30 -34 19 0 12 34 -8 38 -8 1 -18 0 -22
-4z"/>
<path d="M2038 2529 c-10 -5 -18 -17 -18 -24 0 -8 8 -15 18 -15 15 0 15 -2 2
-11 -12 -8 -10 -9 10 -7 20 2 26 9 28 36 3 34 -8 40 -40 21z"/>
<path d="M2040 2447 c1 -7 7 -25 15 -42 l13 -30 1 36 c1 24 -4 39 -14 43 -8 3
-15 0 -15 -7z"/>
<path d="M1480 2160 c0 -25 4 -39 10 -35 6 3 10 19 10 35 0 16 -4 32 -10 35
-6 4 -10 -10 -10 -35z"/>
<path d="M1480 2005 c0 -28 4 -44 10 -40 6 3 10 21 10 40 0 19 -4 37 -10 40
-6 4 -10 -12 -10 -40z"/>
<path d="M1727 2103 c-11 -10 -8 -83 3 -83 6 0 10 20 10 45 0 46 -2 50 -13 38z"/>
<path d="M2180 2155 c0 -25 2 -45 5 -45 11 0 24 49 18 69 -9 37 -23 23 -23
-24z"/>
<path d="M2300 2065 c0 -25 5 -45 10 -45 6 0 10 20 10 45 0 25 -4 45 -10 45
-5 0 -10 -20 -10 -45z"/>
<path d="M2450 2160 c0 -25 4 -39 10 -35 6 3 10 19 10 35 0 16 -4 32 -10 35
-6 4 -10 -10 -10 -35z"/>
<path d="M1450 1820 c0 -5 5 -10 10 -10 6 0 10 5 10 10 0 6 -4 10 -10 10 -5 0
-10 -4 -10 -10z"/>
</g>
</svg>
